<?xml version="1.0" standalone="no"?>
<!DOCTYPE svg PUBLIC "-//W3C//DTD SVG 20010904//EN"
 "http://www.w3.org/TR/2001/REC-SVG-20010904/DTD/svg10.dtd">
<svg version="1.0" xmlns="http://www.w3.org/2000/svg"
 width="1280.000000pt" height="1280.000000pt" viewBox="0 0 1280.000000 1280.000000"
 preserveAspectRatio="xMidYMid meet">
<metadata>
Created by potrace 1.15, written by Peter Selinger 2001-2017
</metadata>
<g transform="translate(0.000000,1280.000000) scale(0.100000,-0.100000)"
fill="#000000" stroke="none">
<path d="M0 12458 l0 -342 71 -93 c39 -51 74 -95 79 -98 4 -2 153 187 331 421
248 326 326 422 334 411 5 -8 151 -199 324 -426 299 -392 315 -411 332 -394 9
10 155 200 324 423 170 223 309 406 310 408 2 2 148 -188 326 -422 178 -234
326 -425 329 -425 3 0 150 191 328 424 l323 425 231 -302 c399 -523 420 -550
428 -541 5 4 149 193 322 419 172 226 318 411 323 411 6 0 151 -185 323 -411
173 -226 317 -415 322 -419 7 -8 74 76 477 606 l182 237 323 -425 c178 -233
325 -424 328 -424 3 0 150 191 328 424 l324 425 67 -88 c37 -48 183 -239 325
-425 211 -277 261 -336 271 -325 7 7 151 195 320 418 169 223 311 408 314 412
4 5 153 -183 331 -417 177 -233 327 -422 331 -420 4 3 150 192 324 420 174
228 320 415 324 415 4 0 152 -189 327 -419 175 -231 322 -419 326 -418 3 1
151 192 328 424 l322 422 37 -47 c20 -26 167 -217 325 -425 237 -311 291 -376
301 -365 7 7 151 195 320 418 170 223 311 408 315 413 3 4 62 -66 130 -155 68
-90 127 -167 131 -173 5 -5 9 74 9 178 l0 187 -408 0 -408 0 -49 -65 c-27 -36
-50 -65 -51 -65 -1 0 -24 29 -50 65 l-48 65 -552 0 -552 0 -50 -65 -50 -65
-52 65 -52 65 -551 0 -552 0 -40 -56 c-21 -30 -44 -59 -50 -64 -8 -7 -27 12
-59 55 l-48 65 -552 0 -552 0 -49 -65 c-27 -36 -50 -65 -51 -65 -1 0 -23 29
-50 65 l-49 65 -552 0 -553 0 -47 -65 c-27 -35 -50 -64 -53 -64 -3 0 -26 29
-53 64 l-47 65 -553 0 -552 0 -23 -33 c-12 -17 -35 -47 -50 -65 l-27 -33 -49
66 -50 65 -552 0 -552 0 -49 -66 -48 -65 -27 33 c-15 18 -38 48 -50 65 l-23
33 -552 0 -553 0 -47 -65 c-27 -35 -50 -64 -53 -64 -3 0 -26 29 -53 64 l-47
65 -553 0 -552 0 -23 -33 c-12 -17 -35 -47 -50 -65 l-27 -33 -49 66 -50 65
-552 0 -552 0 -48 -65 c-32 -43 -51 -62 -59 -55 -6 5 -29 34 -50 64 -32 44
-46 56 -67 56 l-28 0 0 -342z"/>
<path d="M738 12468 c-35 -46 -180 -235 -322 -420 -141 -186 -260 -338 -264
-338 -5 0 -36 38 -71 85 -34 47 -67 87 -72 91 -5 3 -9 -323 -9 -818 l0 -823
73 -97 c39 -53 75 -97 78 -97 4 -1 150 188 325 418 176 231 324 419 329 417 6
-1 152 -189 326 -416 174 -228 320 -415 325 -416 5 -2 152 186 328 417 175
231 322 419 326 417 5 -2 151 -190 325 -418 174 -228 320 -415 325 -415 5 0
151 187 325 415 174 228 320 416 324 418 5 2 152 -186 327 -417 176 -231 322
-420 326 -420 3 -1 150 188 325 418 175 231 323 420 328 420 6 0 153 -189 328
-420 176 -230 322 -419 325 -418 4 0 150 189 326 420 175 231 322 419 327 417
4 -2 150 -190 324 -418 174 -228 321 -415 325 -415 5 0 151 187 325 415 174
228 320 416 325 418 4 2 151 -186 327 -417 175 -231 322 -419 327 -417 6 1
152 188 325 416 174 228 321 415 326 416 6 2 153 -186 329 -417 175 -230 321
-419 325 -419 3 1 150 190 325 421 176 231 323 418 327 417 5 -2 151 -190 325
-418 174 -228 320 -415 325 -415 5 0 151 187 325 415 174 228 321 415 326 415
6 0 153 -187 327 -415 174 -228 321 -415 325 -415 5 0 151 186 325 414 174
228 321 416 326 417 6 2 66 -71 135 -162 l125 -165 3 826 2 825 -125 165 c-69
90 -130 167 -135 170 -4 3 -145 -174 -311 -392 -166 -219 -312 -410 -324 -424
l-22 -27 -323 424 c-177 233 -325 424 -329 423 -3 0 -150 -189 -325 -420 -175
-231 -323 -418 -327 -417 -5 2 -151 190 -325 418 -174 228 -320 415 -325 415
-5 0 -151 -187 -325 -415 -174 -228 -321 -415 -327 -415 -5 0 -152 186 -326
414 -174 228 -321 414 -326 414 -6 -1 -152 -187 -325 -414 -173 -227 -319
-414 -325 -415 -5 -2 -154 186 -329 416 -176 231 -322 420 -325 420 -3 -1
-150 -190 -325 -420 -176 -231 -322 -420 -326 -420 -4 0 -150 189 -326 420
-175 230 -322 419 -325 420 -3 0 -149 -189 -325 -420 -175 -231 -323 -418
-329 -416 -5 1 -152 189 -326 417 -174 228 -320 414 -325 413 -5 0 -150 -187
-324 -414 -173 -227 -320 -415 -325 -416 -6 -2 -154 185 -329 416 -176 231
-322 420 -325 420 -3 0 -150 -189 -325 -420 -176 -231 -322 -420 -326 -420 -4
0 -150 189 -326 420 -175 230 -322 419 -325 420 -3 0 -149 -189 -325 -420
-175 -230 -323 -418 -329 -416 -5 1 -149 185 -320 409 -171 223 -315 411 -321
417 -8 8 -29 -11 -76 -72z"/>
<path d="M500 10283 c-167 -219 -314 -410 -326 -425 l-22 -27 -72 94 c-40 52
-74 95 -76 95 -2 0 -4 -371 -4 -824 l0 -823 72 -96 c40 -53 77 -95 82 -94 6 2
152 190 326 418 174 228 320 414 325 413 5 0 151 -187 325 -414 173 -227 320
-415 325 -416 6 -2 154 186 329 416 176 231 322 420 325 420 3 -1 150 -190
325 -420 176 -231 322 -420 326 -420 4 0 150 189 326 420 175 231 322 420 325
420 3 0 149 -189 325 -420 175 -230 323 -418 329 -416 5 1 152 189 325 416
173 227 319 414 324 414 5 1 152 -185 326 -413 174 -228 320 -416 325 -418 6
-1 154 186 329 417 176 231 322 420 325 420 3 0 150 -189 325 -420 176 -231
322 -420 326 -420 4 0 150 189 326 420 175 230 322 419 325 420 3 0 150 -189
325 -420 175 -230 324 -418 329 -416 6 1 152 189 326 417 174 228 320 414 324
414 5 0 151 -187 326 -415 174 -228 321 -415 326 -415 6 0 153 187 327 415
174 228 320 415 325 415 5 0 151 -187 325 -415 174 -228 320 -416 325 -418 4
-1 152 186 327 417 175 231 322 420 325 421 4 0 150 -189 325 -419 176 -231
324 -419 329 -417 6 1 152 188 326 416 173 227 319 413 325 414 5 0 63 -70
129 -156 66 -86 123 -160 128 -164 4 -4 7 364 7 818 l0 825 -131 173 c-108
141 -134 169 -144 158 -7 -7 -151 -195 -320 -418 -169 -223 -311 -408 -314
-413 -4 -4 -153 184 -331 418 -307 403 -325 424 -341 408 -9 -10 -157 -201
-327 -426 l-311 -407 -257 337 c-142 186 -287 377 -323 425 -37 48 -69 86 -73
85 -3 -1 -151 -192 -328 -424 l-322 -422 -22 27 c-12 15 -159 206 -325 425
-248 326 -306 396 -316 385 -7 -7 -152 -197 -323 -421 -171 -224 -314 -409
-317 -410 -3 -1 -149 187 -326 418 -176 231 -323 421 -327 422 -4 1 -150 -187
-325 -418 -175 -230 -322 -419 -327 -419 -4 0 -151 189 -327 419 -175 231
-320 420 -323 420 -3 1 -151 -191 -329 -424 -178 -234 -327 -422 -331 -418 -4
4 -150 196 -325 426 -259 340 -320 416 -331 405 -6 -7 -151 -195 -321 -418
-169 -223 -312 -407 -317 -409 -5 -2 -153 185 -328 415 -176 231 -322 420
-326 421 -4 1 -150 -187 -325 -418 -176 -230 -323 -419 -327 -419 -5 0 -152
189 -327 419 -175 231 -321 419 -325 418 -4 -1 -150 -190 -325 -419 -175 -229
-321 -418 -324 -420 -4 -2 -147 182 -319 407 -172 226 -318 416 -325 423 -10
11 -68 -59 -315 -385z"/>
<path d="M489 8399 c-173 -227 -319 -419 -325 -427 -9 -13 -24 2 -85 83 l-74
98 -3 -827 -2 -827 76 -99 76 -99 22 27 c12 15 159 206 325 425 249 327 306
396 316 385 7 -7 153 -197 324 -421 170 -224 313 -408 317 -408 4 -1 150 187
326 418 175 230 322 419 326 420 4 1 150 -187 325 -418 176 -230 322 -419 327
-419 4 0 151 189 326 419 176 231 321 420 324 420 3 1 151 -190 329 -423 l323
-425 22 27 c13 15 159 206 325 425 166 218 304 397 306 397 2 0 139 -179 306
-397 166 -219 313 -410 325 -425 l22 -27 323 424 c178 234 326 425 329 424 3
0 148 -189 324 -420 175 -230 322 -419 326 -419 5 0 151 189 327 419 175 231
320 420 323 420 3 1 151 -190 330 -424 178 -234 327 -422 330 -418 4 5 145
190 315 413 169 223 313 411 320 418 10 11 64 -54 301 -365 158 -208 305 -399
325 -425 l37 -47 322 422 c177 232 325 423 328 424 4 1 64 -73 134 -165 69
-92 214 -283 323 -425 l196 -257 310 407 c171 225 319 416 328 426 16 17 33
-4 341 -408 178 -234 327 -422 331 -418 3 5 145 190 314 413 169 223 313 411
320 418 10 11 36 -16 139 -152 70 -91 129 -166 132 -166 2 0 4 370 4 823 l0
823 -132 172 c-72 95 -134 169 -138 165 -4 -4 -146 -190 -315 -413 -169 -223
-313 -411 -320 -418 -9 -10 -77 73 -330 405 -175 230 -321 422 -325 426 -4 5
-153 -183 -331 -417 -178 -234 -326 -425 -329 -425 -3 0 -147 187 -320 415
-173 228 -319 419 -325 423 -6 6 -129 -148 -330 -411 -175 -231 -322 -421
-325 -423 -3 -2 -152 188 -330 421 -255 335 -326 422 -335 412 -9 -9 -500
-653 -631 -826 -8 -11 -78 75 -335 411 -202 265 -328 422 -334 417 -5 -5 -152
-196 -325 -424 -173 -228 -317 -415 -320 -415 -3 0 -140 178 -305 395 -165
218 -311 409 -325 425 l-25 29 -324 -426 c-178 -234 -327 -422 -331 -417 -4 4
-146 190 -315 413 -169 223 -313 411 -320 418 -9 10 -79 -76 -326 -400 -173
-226 -319 -418 -325 -426 -9 -12 -76 71 -335 412 l-324 426 -25 -29 c-14 -16
-160 -207 -325 -425 -165 -217 -302 -395 -305 -395 -3 0 -140 178 -305 395
-165 218 -311 409 -325 425 l-25 29 -324 -426 c-258 -340 -327 -424 -335 -412
-106 140 -622 817 -631 826 -9 10 -78 -74 -326 -399z"/>
<path d="M481 6515 c-178 -234 -327 -425 -330 -425 -3 0 -37 43 -76 96 l-70
95 -3 -826 -2 -826 76 -100 c42 -56 80 -97 84 -92 4 4 146 190 315 413 169
223 313 411 320 418 10 12 151 -166 651 -826 8 -11 79 76 335 412 l324 426 25
-29 c14 -16 160 -207 325 -425 165 -217 302 -395 305 -395 3 0 139 177 304
394 164 216 310 407 325 424 l26 31 324 -426 c178 -234 327 -422 331 -417 4 4
146 190 315 413 169 223 313 411 320 418 9 10 78 -75 326 -399 173 -227 319
-419 325 -427 8 -12 76 71 335 412 l324 426 25 -29 c14 -16 160 -207 325 -425
165 -217 302 -395 305 -395 3 0 140 178 305 395 165 218 311 409 325 425 l25
29 324 -426 c256 -337 327 -423 335 -412 109 144 622 817 631 826 9 10 78 -75
330 -405 175 -230 321 -422 325 -426 4 -5 153 183 331 417 178 234 326 425
329 425 3 0 149 -191 325 -424 176 -233 322 -424 325 -424 3 0 151 191 329
425 178 234 327 422 331 417 4 -4 150 -196 325 -426 254 -333 321 -415 330
-405 9 9 488 638 631 826 8 11 37 -21 140 -155 l129 -170 3 825 2 825 -131
173 -131 173 -22 -27 c-12 -15 -159 -206 -325 -424 -167 -219 -304 -398 -306
-398 -2 0 -120 152 -261 338 -142 185 -288 376 -325 424 l-67 87 -323 -424
c-178 -234 -326 -425 -329 -425 -3 1 -149 190 -324 420 -176 231 -323 420
-327 420 -4 0 -151 -189 -326 -419 -175 -231 -321 -420 -324 -420 -3 -1 -151
190 -330 424 -178 233 -326 421 -330 417 -3 -4 -149 -195 -324 -425 -260 -341
-321 -416 -331 -405 -7 7 -152 195 -322 418 -170 223 -314 405 -320 405 -6 0
-154 -187 -328 -415 -174 -228 -320 -415 -324 -415 -4 0 -150 187 -324 415
-174 228 -320 416 -325 418 -5 2 -152 -184 -326 -413 -174 -228 -320 -417
-325 -420 -5 -3 -470 596 -645 832 -8 10 -89 -90 -334 -412 -178 -233 -327
-422 -331 -420 -5 3 -151 192 -325 420 -174 229 -321 415 -326 413 -5 -2 -151
-190 -325 -418 -174 -228 -320 -415 -324 -415 -5 0 -150 187 -324 415 -174
228 -322 415 -328 415 -6 0 -150 -182 -320 -405 -169 -222 -314 -410 -321
-418 -11 -11 -67 57 -332 405 -175 230 -321 421 -324 425 -4 4 -152 -184 -330
-417z"/>
<path d="M783 5037 c-11 -12 -156 -201 -322 -419 -167 -219 -306 -398 -309
-398 -4 1 -40 44 -80 97 l-72 96 0 -829 0 -828 71 -93 c39 -51 74 -95 79 -98
4 -2 153 187 331 421 248 326 326 422 334 411 5 -8 151 -199 324 -426 299
-392 315 -411 332 -394 9 10 155 200 324 423 170 223 309 406 310 408 2 2 148
-188 326 -422 178 -234 326 -425 329 -425 3 0 150 191 328 424 l323 425 231
-302 c399 -523 420 -550 428 -541 5 4 150 194 323 421 174 227 318 413 322
413 4 0 148 -186 322 -413 173 -227 318 -417 323 -421 7 -8 74 76 477 606
l182 237 323 -425 c178 -233 325 -424 328 -424 3 0 150 191 328 424 l324 425
67 -88 c37 -48 183 -239 325 -425 211 -277 261 -336 271 -325 7 7 151 195 320
418 169 223 311 408 314 412 4 5 153 -183 331 -417 177 -233 327 -422 331
-420 4 3 150 192 324 420 174 228 320 415 324 415 4 0 152 -189 327 -419 175
-231 322 -419 326 -418 3 1 151 192 328 424 l322 422 37 -47 c20 -26 167 -217
325 -425 237 -311 291 -376 301 -365 7 7 151 195 320 418 170 223 311 409 315
413 4 4 65 -69 136 -163 l129 -170 3 826 2 825 -127 169 c-71 93 -132 168
-137 166 -6 -1 -152 -188 -326 -416 -173 -227 -320 -414 -325 -414 -5 -1 -152
186 -326 413 -173 228 -320 416 -325 418 -5 1 -153 -187 -328 -418 -176 -231
-323 -418 -327 -417 -4 2 -150 190 -324 418 -174 228 -319 416 -324 418 -4 1
-151 -186 -327 -417 -175 -231 -322 -420 -326 -421 -3 0 -149 189 -325 419
-175 231 -322 418 -328 417 -5 -1 -152 -189 -326 -416 -173 -228 -320 -415
-325 -416 -5 -2 -152 186 -328 417 -175 231 -322 419 -326 417 -5 -2 -150
-190 -324 -418 -174 -228 -321 -415 -326 -415 -5 0 -151 187 -325 415 -174
228 -320 416 -324 418 -5 1 -152 -186 -327 -417 -175 -231 -323 -419 -328
-417 -5 1 -152 189 -325 417 -174 227 -321 414 -326 414 -5 0 -152 -187 -326
-414 -173 -228 -320 -416 -325 -417 -5 -2 -153 186 -328 417 -175 231 -322
418 -327 417 -4 -2 -150 -190 -324 -418 -174 -228 -320 -415 -325 -415 -5 0
-152 187 -326 415 -173 228 -319 416 -323 418 -5 1 -152 -186 -327 -417 -175
-231 -322 -420 -326 -420 -4 -1 -149 186 -323 414 -175 228 -320 417 -325 420
-4 2 -16 -6 -27 -18z"/>
<path d="M559 2873 c-362 -475 -400 -523 -408 -523 -4 0 -35 38 -70 85 -34 47
-67 87 -72 91 -5 3 -9 -323 -9 -819 l0 -824 73 -96 c39 -53 75 -96 79 -96 3
-1 149 188 325 418 175 231 323 418 328 417 6 -1 152 -189 326 -416 173 -228
320 -415 325 -416 5 -2 152 186 328 417 175 231 322 419 326 417 5 -2 151
-190 325 -418 174 -228 320 -415 325 -415 5 0 151 187 325 415 174 228 320
416 324 418 4 1 152 -186 327 -417 175 -231 323 -419 328 -417 5 1 151 189
325 417 174 227 321 414 326 414 5 0 152 -187 326 -414 174 -228 320 -416 325
-417 5 -2 153 186 328 417 175 231 323 418 327 417 4 -2 150 -190 324 -418
174 -228 320 -415 325 -415 5 0 151 187 325 415 174 228 320 416 325 418 4 2
151 -186 326 -417 176 -231 323 -419 328 -417 5 1 152 188 325 416 174 227
321 415 326 416 6 2 153 -186 328 -417 176 -230 322 -419 325 -419 4 1 151
190 326 421 176 231 323 418 327 417 5 -2 150 -190 324 -418 174 -228 320
-416 324 -418 4 -1 151 187 326 418 176 230 324 418 329 417 6 -2 152 -190
325 -417 174 -228 320 -415 325 -415 5 0 151 186 325 414 174 228 321 416 326
417 6 2 66 -72 135 -163 l125 -166 3 827 2 827 -126 165 c-70 90 -130 167
-134 169 -5 3 -151 -183 -326 -413 -174 -229 -320 -420 -323 -424 -4 -4 -152
184 -330 417 -178 234 -327 425 -330 424 -3 0 -149 -189 -324 -420 -176 -230
-322 -419 -326 -419 -4 0 -151 189 -327 420 -175 231 -321 420 -324 420 -3 0
-151 -191 -329 -424 l-324 -425 -230 302 c-359 471 -418 547 -422 547 -2 0
-140 -179 -306 -397 -167 -219 -312 -410 -324 -425 l-22 -26 -323 424 c-178
233 -326 424 -329 424 -3 -1 -150 -190 -325 -420 -175 -231 -322 -420 -326
-420 -4 0 -150 189 -326 420 -175 230 -322 419 -325 420 -3 0 -151 -191 -329
-424 l-323 -425 -131 172 c-73 95 -219 286 -325 426 -186 244 -194 252 -211
235 -13 -15 -276 -359 -635 -831 0 -2 -147 189 -325 422 -178 234 -326 425
-330 425 -3 -1 -149 -190 -324 -420 -176 -231 -322 -420 -326 -420 -4 0 -151
189 -326 420 -175 230 -322 419 -325 420 -3 0 -151 -191 -329 -424 l-323 -424
-36 46 c-20 26 -166 217 -324 425 -159 207 -290 377 -292 377 -2 0 -113 -143
-246 -317z"/>
<path d="M485 903 c-175 -230 -321 -422 -325 -426 -4 -5 -40 35 -80 87 -40 53
-74 96 -76 96 -2 0 -4 -148 -4 -330 l0 -330 379 0 380 0 22 31 22 31 24 -31
24 -31 607 0 607 0 21 31 22 31 23 -31 23 -31 606 0 606 0 23 31 23 31 22 -31
21 -31 607 0 607 0 22 31 22 32 26 -32 26 -31 605 0 605 0 21 31 22 31 23 -31
23 -31 606 0 606 0 23 30 22 30 25 -30 26 -30 603 0 604 0 24 31 24 31 22 -31
22 -31 607 0 607 0 21 31 22 31 23 -31 23 -31 606 0 606 0 23 31 23 32 25 -32
24 -31 604 0 604 0 24 31 24 31 22 -31 22 -31 110 0 109 0 0 489 0 488 -131
173 c-107 140 -134 169 -144 158 -7 -7 -151 -195 -320 -418 -169 -223 -311
-408 -315 -413 -3 -4 -152 184 -331 418 l-324 426 -25 -30 c-14 -16 -160 -207
-325 -425 l-300 -395 -25 29 c-14 16 -160 206 -325 424 -165 217 -303 394
-306 393 -4 -1 -152 -192 -329 -424 l-322 -423 -22 28 c-12 15 -159 206 -326
425 -245 323 -305 396 -315 385 -7 -7 -151 -195 -320 -418 -169 -223 -311
-409 -315 -413 -3 -4 -152 184 -331 418 l-324 426 -32 -38 c-17 -21 -164 -212
-327 -426 l-295 -388 -75 98 c-41 53 -186 244 -323 424 -136 180 -251 327
-255 326 -3 -1 -151 -192 -329 -425 -177 -233 -325 -419 -329 -415 -4 4 -145
190 -315 413 -169 223 -313 411 -320 418 -10 11 -72 -66 -330 -405 -175 -230
-321 -422 -325 -426 -4 -4 -152 182 -329 415 -178 233 -326 424 -329 425 -4 1
-149 -185 -322 -413 -173 -228 -319 -419 -325 -423 -6 -5 -130 151 -330 415
-176 232 -322 423 -325 423 -3 1 -151 -190 -329 -424 -179 -234 -328 -422
-331 -418 -4 4 -146 190 -315 413 -169 223 -313 411 -320 418 -10 11 -73 -67
-330 -405z"/>
</g>
</svg>
